<svg width="14" height="15" viewBox="0 0 14 15" fill="none" xmlns="http://www.w3.org/2000/svg">
<path fill-rule="evenodd" clip-rule="evenodd" d="M6.826 0.333313C10.406 0.333313 13.318 3.24531 13.318 6.82531C13.318 8.51434 12.6698 10.0548 11.6091 11.211L13.6963 13.2938C13.8916 13.4891 13.8923 13.8051 13.6969 14.0004C13.5996 14.0991 13.4709 14.1478 13.3429 14.1478C13.2156 14.1478 13.0876 14.0991 12.9896 14.0018L10.8772 11.8953C9.76605 12.7852 8.35712 13.318 6.826 13.318C3.246 13.318 0.333336 10.4053 0.333336 6.82531C0.333336 3.24531 3.246 0.333313 6.826 0.333313ZM6.826 1.33331C3.79734 1.33331 1.33334 3.79665 1.33334 6.82531C1.33334 9.85398 3.79734 12.318 6.826 12.318C9.854 12.318 12.318 9.85398 12.318 6.82531C12.318 3.79665 9.854 1.33331 6.826 1.33331Z" fill="#DBB466"/>
</svg>
