<svg width="169" height="52" viewBox="0 0 169 52" fill="none" xmlns="http://www.w3.org/2000/svg">
<g clip-path="url(#clip0_18_4134)">
<path d="M159.814 17.4873V19.027C165.772 19.1553 169.321 21.6251 169.321 25.9875C169.321 30.3499 165.772 32.6273 159.814 32.7556V34.2952H155.094V32.7556C149.167 32.6273 145.619 30.3499 145.619 25.9875C145.619 21.6251 149.167 19.1553 155.094 19.027V17.4873H159.814ZM155.094 29.4838V22.3308C151.837 22.4591 150.405 23.9346 150.405 25.9875C150.405 28.0404 151.837 29.3555 155.094 29.4838ZM159.814 22.3308V29.4838C163.102 29.3555 164.503 28.0404 164.503 25.9875C164.503 23.9346 163.102 22.4591 159.814 22.3308Z" fill="white"/>
<path d="M134.601 17.4873V19.027C140.559 19.1553 144.107 21.6251 144.107 25.9875C144.107 30.3499 140.559 32.6273 134.601 32.7556V34.2952H129.88V32.7556C123.954 32.6273 120.406 30.3499 120.406 25.9875C120.406 21.6251 123.954 19.1553 129.88 19.027V17.4873H134.601ZM129.88 29.4838V22.3308C126.625 22.4591 125.192 23.9346 125.192 25.9875C125.192 28.0404 126.625 29.3555 129.88 29.4838ZM134.601 22.3308V29.4838C137.889 29.3555 139.289 28.0404 139.289 25.9875C139.289 23.9346 137.889 22.4591 134.601 22.3308Z" fill="white"/>
<path d="M108.753 17.9365C115.069 17.9365 118.879 21.4649 118.879 26.0197C118.879 30.5746 115.069 34.1029 108.753 34.1029C102.404 34.1029 98.5949 30.5746 98.5949 26.0197C98.5949 21.4649 102.404 17.9365 108.753 17.9365ZM108.753 30.3821C111.879 30.3821 113.93 28.5217 113.93 26.0197C113.93 23.5178 111.879 21.6894 108.753 21.6894C105.595 21.6894 103.576 23.5178 103.576 26.0197C103.576 28.5217 105.595 30.3821 108.753 30.3821Z" fill="white"/>
<path d="M87.1229 27.8481H85.8204V33.6218H81.0997V18.3535H85.8204V24.0952H87.1229L92.8209 18.3535H98.7463L91.1932 25.6669L99.0397 33.6218H92.7557L87.1229 27.8481Z" fill="white"/>
<path d="M71.6589 33.6218H62.0862V18.3535H66.8077V22.4593H71.6589C72.8309 22.4593 74.0682 22.4913 75.1098 22.8763C77.2909 23.6782 78.6585 25.4423 78.6585 27.9764C78.6585 30.6387 77.0635 32.5954 74.6216 33.2689C73.7096 33.5256 72.7331 33.6218 71.6589 33.6218ZM70.8447 26.0518H66.8077V29.9331H70.8447C71.6589 29.9331 72.1797 29.9331 72.7005 29.7085C73.4496 29.3878 73.9052 28.7141 73.9052 27.9123C73.9052 27.1424 73.4496 26.5009 72.6679 26.2443C72.1145 26.0518 71.4959 26.0518 70.8447 26.0518Z" fill="white"/>
<path d="M53.7904 27.9443H46.2044V33.6218H41.4835V18.3535H46.2044V23.9348H53.7904V18.3535H58.5113V33.6218H53.7904V27.9443Z" fill="white"/>
<path d="M25.6014 27.2386L33.7408 18.3535H37.9082V33.6218H33.1874V24.7367L25.0479 33.6218H20.8805V18.3535H25.6014V27.2386Z" fill="white"/>
<path d="M12.2191 33.6218H7.33543V22.4272H0.628479V18.3535H18.926V22.4272H12.2191V33.6218Z" fill="white"/>
</g>
<defs>
<clipPath id="clip0_18_4134">
<rect width="169" height="52" fill="white"/>
</clipPath>
</defs>
</svg>
