<svg width="637" height="637" viewBox="0 0 637 637" fill="none" xmlns="http://www.w3.org/2000/svg">
    <rect x="2.5" y="2.5" width="632" height="632" rx="316" fill="#2954FE"/>
    <rect x="2.5" y="2.5" width="632" height="632" rx="316" stroke="#DBB466" stroke-width="5"/>
    <path d="M568 131C510.389 131 453.433 144.796 403.251 170.921C376.375 184.906 351.557 202.254 329.507 222.517C324.318 227.259 319.237 232.225 314.376 237.295C298.116 254.264 283.695 272.888 271.586 292.633C267.289 299.721 262.518 306.636 257.42 313.24C256.746 314.103 256.109 314.965 255.381 315.81C210.788 371.699 142.853 403.74 69 403.74V507C126.611 507 183.567 493.204 233.749 467.096C260.57 453.145 285.388 435.763 307.493 415.5C312.682 410.741 317.763 405.775 322.642 400.722C338.921 383.736 353.287 365.146 365.396 345.384L366.197 344.108C370.294 337.452 374.809 330.968 379.562 324.794C380.235 323.949 380.909 323.07 381.619 322.173C426.193 266.301 494.147 234.243 568 234.243V131Z" fill="white"/>
    <path d="M568 403.76C494.147 403.76 426.193 371.698 381.583 315.801C380.927 314.956 380.235 314.11 379.562 313.196C374.482 306.643 369.711 299.709 365.414 292.604C353.305 272.873 338.902 254.264 322.624 237.275C317.763 232.239 312.682 227.272 307.493 222.512C285.443 202.247 260.643 184.879 233.749 170.909C183.567 144.798 126.611 131 69 131V234.275C142.853 234.275 210.807 266.319 255.417 322.217C256.109 323.062 256.765 323.941 257.438 324.786C262.227 330.978 266.743 337.48 270.785 344.068L271.641 345.414C283.731 365.127 298.116 383.719 314.376 400.724C319.219 405.761 324.318 410.728 329.507 415.488C351.594 435.753 376.412 453.138 403.251 467.091C453.433 493.202 510.389 507 568 507V403.76Z" fill="white"/>
</svg>
