<svg width="637" height="637" viewBox="0 0 637 637" fill="none" xmlns="http://www.w3.org/2000/svg">
    <rect x="2.5" y="2.5" width="632" height="632" rx="316" fill="#15182A"/>
    <rect x="2.5" y="2.5" width="632" height="632" rx="316" stroke="#DBB466" stroke-width="5"/>
    <g clip-path="url(#clip0_1908_759)">
        <path d="M427.901 365.519V233.962H454.356V365.519H427.901Z" fill="#F6A500"/>
        <path d="M119.7 404.597H63.0103V273.04H117.432C143.887 273.04 159.269 287.439 159.269 310.002C159.269 324.59 149.367 334.038 142.527 337.175C150.69 340.878 161.158 349.193 161.158 366.729C161.158 391.294 143.849 404.597 119.7 404.597ZM115.316 295.943H89.4275V326.252H115.316C126.54 326.252 132.814 320.168 132.814 311.098C132.814 302.065 126.54 295.943 115.316 295.943ZM117.016 349.344H89.4275V381.695H117.016C128.997 381.695 134.703 374.325 134.703 365.444C134.703 356.562 128.997 349.382 117.016 349.382V349.344Z" fill="white"/>
        <path d="M241.847 350.629V404.597H215.58V350.629L174.877 273.04H203.6L228.884 326.064L253.827 273.04H282.55L241.847 350.629Z" fill="white"/>
        <path d="M357.531 404.597H300.841V273.04H355.263C381.718 273.04 397.1 287.439 397.1 310.002C397.1 324.59 387.198 334.038 380.358 337.175C388.521 340.878 398.99 349.193 398.99 366.729C398.99 391.294 381.68 404.597 357.531 404.597ZM353.147 295.943H327.259V326.252H353.147C364.371 326.252 370.645 320.168 370.645 311.098C370.645 302.065 364.371 295.943 353.147 295.943ZM354.847 349.344H327.259V381.695H354.847C366.828 381.695 372.535 374.325 372.535 365.444C372.535 356.562 366.828 349.382 354.847 349.382V349.344Z" fill="white"/>
        <path d="M539.579 295.943V404.597H513.162V295.943H477.75V273.04H574.991V295.943H539.579Z" fill="white"/>
    </g>
    <defs>
        <clipPath id="clip0_1908_759">
            <rect width="512.001" height="170.559" fill="white" transform="translate(63 234)"/>
        </clipPath>
    </defs>
</svg>
