<svg width="55" height="55"  viewBox="-7 -7 55 55" xmlns="http://www.w3.org/2000/svg">
    <rect x="-7" y="-7" width="55" height="55" fill="#3861fb" rx="12"></rect>
    <path d="m35.124 24.5c-0.715 0.452-1.557 0.508-2.197 0.147-0.813-0.459-1.26-1.534-1.26-3.029v-4.473c0-2.16-0.854-3.697-2.282-4.112-2.42-0.705-4.24 2.256-4.924 3.368l-4.268 6.92v-8.458c-0.048-1.946-0.68-3.11-1.88-3.461-0.794-0.232-1.982-0.139-3.136 1.627l-9.562 15.354c-1.2801-2.4302-1.9475-5.1363-1.944-7.883 0-9.249 7.412-16.773 16.522-16.773s16.521 7.524 16.521 16.773c0 0.016 4e-3 0.03 5e-3 0.045 0 0.016-3e-3 0.03-2e-3 0.046 0.086 1.791-0.494 3.216-1.593 3.91zm5.261-3.999v-0.047l-1e-3 -0.046c-0.051-11.264-9.088-20.408-20.192-20.408-11.133 0-20.192 9.196-20.192 20.5 0 11.303 9.059 20.5 20.193 20.5 5.109 0 9.985-1.942 13.728-5.467 0.744-0.7 0.788-1.879 0.098-2.633-0.68394-0.7542-1.854-0.79931-2.594-0.1-3.0339 2.873-7.0536 4.4738-11.232 4.473-4.878 0-9.267-2.159-12.294-5.583l8.623-13.846v6.383c0 3.066 1.189 4.057 2.186 4.347 0.998 0.29 2.523 0.092 4.124-2.508l4.743-7.689c0.152-0.248 0.292-0.462 0.42-0.647v3.888c0 2.866 1.148 5.158 3.149 6.287 1.804 1.018 4.072 0.926 5.92-0.24 2.24-1.415 3.447-4.022 3.321-7.164z"
          fill="#fff"></path>
</svg>
