<svg width="259" height="104" viewBox="0 0 259 104" fill="none" xmlns="http://www.w3.org/2000/svg">
<path d="M119.392 30.338H122.968V37.9159H129.803L134.973 30.338H139.116L132.883 39.4031L139.611 49.9201H135.362L129.909 41.1737H122.968V49.9201H119.392V30.338Z" fill="white"/>
<path d="M142.319 30.338H145.931V46.6623H160.024V49.9201H142.319V30.338Z" fill="white"/>
<path d="M162.895 30.338H166.506V49.9201H162.895V30.338Z" fill="white"/>
<path d="M169.428 30.338H173.04L186.036 44.8918V30.338H189.612V49.9201H185.965L172.969 35.2955V49.9201H169.428V30.338Z" fill="white"/>
<path d="M192.395 30.338H195.972V37.9159H202.806L207.976 30.338H212.119L205.887 39.4031L212.615 49.9201H208.365L202.912 41.1737H195.972V49.9201H192.395V30.338Z" fill="white"/>
<path d="M218.401 34.9414C217.032 36.2162 216.347 37.9513 216.347 40.1468C216.347 42.3422 217.032 44.0892 218.401 45.3875C219.794 46.6623 221.553 47.2997 223.677 47.2997C225.802 47.2997 227.561 46.6623 228.953 45.3875C230.346 44.0892 231.043 42.3422 231.043 40.1468C231.043 37.9513 230.346 36.2162 228.953 34.9414C227.561 33.643 225.802 32.9938 223.677 32.9938C221.553 32.9938 219.794 33.643 218.401 34.9414ZM231.468 32.7459C233.569 34.6345 234.619 37.1014 234.619 40.1468C234.619 43.1921 233.569 45.6708 231.468 47.583C229.366 49.4716 226.77 50.4159 223.677 50.4159C220.585 50.4159 217.988 49.4716 215.887 47.583C213.786 45.6708 212.735 43.1921 212.735 40.1468C212.735 37.1014 213.786 34.6345 215.887 32.7459C217.988 30.8337 220.585 29.8776 223.677 29.8776C226.77 29.8776 229.366 30.8337 231.468 32.7459Z" fill="white"/>
<path d="M235.166 30.338H239.132L246.037 46.6623H247.454L254.359 30.338H258.289L249.649 49.9201H243.771L235.166 30.338Z" fill="white"/>
<path fill-rule="evenodd" clip-rule="evenodd" d="M52 96.096C76.3536 96.096 96.096 76.3536 96.096 52C96.096 27.6465 76.3536 7.904 52 7.904C27.6465 7.904 7.904 27.6465 7.904 52C7.904 76.3536 27.6465 96.096 52 96.096ZM52 104C80.7188 104 104 80.7188 104 52C104 23.2812 80.7188 0 52 0C23.2812 0 0 23.2812 0 52C0 80.7188 23.2812 104 52 104Z" fill="white"/>
<path d="M33.488 31.368C33.488 30.8157 33.9357 30.368 34.488 30.368H40.5822C41.1345 30.368 41.5822 30.8157 41.5822 31.368V46.1773C41.5822 46.7295 42.0299 47.1773 42.5822 47.1773H56.1001C56.4333 47.1773 56.7446 47.0113 56.9304 46.7346L67.6205 30.8106C67.8062 30.534 68.1176 30.368 68.4508 30.368H75.4185C76.2186 30.368 76.6947 31.261 76.2488 31.9253L64.3859 49.5989C64.1645 49.9288 64.1593 50.3584 64.3727 50.6935L78.2689 72.5108C78.6929 73.1765 78.2147 74.048 77.4255 74.048H70.1715C69.8343 74.048 69.5199 73.8781 69.3351 73.5961L57.1698 55.0343C56.985 54.7524 56.6705 54.5825 56.3334 54.5825H42.5822C42.0299 54.5825 41.5822 55.0302 41.5822 55.5825V70.76C41.5822 71.3123 41.1345 71.76 40.5822 71.76H34.488C33.9357 71.76 33.488 71.3123 33.488 70.76V55.5825C33.488 55.0302 33.0403 54.5825 32.488 54.5825H19.7681C18.9671 54.5825 18.4912 53.6877 18.9389 53.0235L22.5827 47.6183C22.7686 47.3426 23.0794 47.1773 23.4119 47.1773H32.488C33.0403 47.1773 33.488 46.7295 33.488 46.1773V31.368Z" fill="white"/>
</svg>
