<svg width="300" height="104" viewBox="0 0 300 104" fill="none" xmlns="http://www.w3.org/2000/svg">
    <path d="M119.392 30.338H122.968V37.9159H129.803L134.973 30.338H139.116L132.883 39.4031L139.611 49.9201H135.362L129.909 41.1737H122.968V49.9201H119.392V30.338Z"
          fill="white"/>
    <path d="M142.319 30.338H145.931V46.6623H160.024V49.9201H142.319V30.338Z" fill="white"/>
    <path d="M162.895 30.338H166.506V49.9201H162.895V30.338Z" fill="white"/>
    <path d="M169.428 30.338H173.04L186.036 44.8918V30.338H189.612V49.9201H185.965L172.969 35.2955V49.9201H169.428V30.338Z"
          fill="white"/>
    <path d="M192.395 30.338H195.972V37.9159H202.806L207.976 30.338H212.119L205.887 39.4031L212.615 49.9201H208.365L202.912 41.1737H195.972V49.9201H192.395V30.338Z"
          fill="white"/>
    <path d="M218.401 34.9414C217.032 36.2162 216.347 37.9513 216.347 40.1468C216.347 42.3422 217.032 44.0892 218.401 45.3875C219.794 46.6623 221.553 47.2997 223.677 47.2997C225.802 47.2997 227.561 46.6623 228.953 45.3875C230.346 44.0892 231.043 42.3422 231.043 40.1468C231.043 37.9513 230.346 36.2162 228.953 34.9414C227.561 33.643 225.802 32.9938 223.677 32.9938C221.553 32.9938 219.794 33.643 218.401 34.9414ZM231.468 32.7459C233.569 34.6345 234.619 37.1014 234.619 40.1468C234.619 43.1921 233.569 45.6708 231.468 47.583C229.366 49.4716 226.77 50.4159 223.677 50.4159C220.585 50.4159 217.988 49.4716 215.887 47.583C213.786 45.6708 212.735 43.1921 212.735 40.1468C212.735 37.1014 213.786 34.6345 215.887 32.7459C217.988 30.8337 220.585 29.8776 223.677 29.8776C226.77 29.8776 229.366 30.8337 231.468 32.7459Z"
          fill="white"/>
    <path d="M235.166 30.338H239.132L246.037 46.6623H247.454L254.359 30.338H258.289L249.649 49.9201H243.771L235.166 30.338Z"
          fill="white"/>
    <path fill-rule="evenodd" clip-rule="evenodd"
          d="M52 96.096C76.3536 96.096 96.096 76.3536 96.096 52C96.096 27.6465 76.3536 7.904 52 7.904C27.6465 7.904 7.904 27.6465 7.904 52C7.904 76.3536 27.6465 96.096 52 96.096ZM52 104C80.7188 104 104 80.7188 104 52C104 23.2812 80.7188 0 52 0C23.2812 0 0 23.2812 0 52C0 80.7188 23.2812 104 52 104Z"
          fill="white"/>
    <path d="M33.488 31.368C33.488 30.8157 33.9357 30.368 34.488 30.368H40.5822C41.1345 30.368 41.5822 30.8157 41.5822 31.368V46.1773C41.5822 46.7295 42.0299 47.1773 42.5822 47.1773H56.1001C56.4333 47.1773 56.7446 47.0113 56.9304 46.7346L67.6205 30.8106C67.8062 30.534 68.1176 30.368 68.4508 30.368H75.4185C76.2186 30.368 76.6947 31.261 76.2488 31.9253L64.3859 49.5989C64.1645 49.9288 64.1593 50.3584 64.3727 50.6935L78.2689 72.5108C78.6929 73.1765 78.2147 74.048 77.4255 74.048H70.1715C69.8343 74.048 69.5199 73.8781 69.3351 73.5961L57.1698 55.0343C56.985 54.7524 56.6705 54.5825 56.3334 54.5825H42.5822C42.0299 54.5825 41.5822 55.0302 41.5822 55.5825V70.76C41.5822 71.3123 41.1345 71.76 40.5822 71.76H34.488C33.9357 71.76 33.488 71.3123 33.488 70.76V55.5825C33.488 55.0302 33.0403 54.5825 32.488 54.5825H19.7681C18.9671 54.5825 18.4912 53.6877 18.9389 53.0235L22.5827 47.6183C22.7686 47.3426 23.0794 47.1773 23.4119 47.1773H32.488C33.0403 47.1773 33.488 46.7295 33.488 46.1773V31.368Z"
          fill="white"/>
    <svg x="120" y="55" width="179" height="23" viewBox="0 0 179 23" fill="none" xmlns="http://www.w3.org/2000/svg">
        <path d="M11.5122 4.84677L7.09395 15.4283H18.1582L13.8513 4.84677H11.5122ZM9.21026 1.4681H16.3389L25.064 22H21.0913L19.6804 18.7698H5.68308L4.27221 22H0.225231L9.21026 1.4681ZM48.2349 6.14626L45.3018 7.85415C43.5939 5.52745 41.1558 4.3641 37.9875 4.3641C35.6856 4.3641 33.8415 5.03241 32.4554 6.36902C31.094 7.70564 30.4134 9.50017 30.4134 11.7526C30.4134 13.9308 31.1064 15.713 32.4925 17.0991C33.9034 18.4604 35.7351 19.1411 37.9875 19.1411C41.0815 19.1411 43.5196 17.9654 45.3018 15.6139L48.272 17.359C46.0196 20.7995 42.6162 22.5198 38.0618 22.5198C34.745 22.5198 32.0099 21.5421 29.8564 19.5867C27.7278 17.6312 26.6634 15.0199 26.6634 11.7526C26.6634 8.48533 27.7401 5.87398 29.8936 3.91856C32.047 1.96314 34.7697 0.985435 38.0618 0.985435C42.6657 0.985435 46.0567 2.70571 48.2349 6.14626ZM61.0407 4.84677L56.6224 15.4283H67.6866L63.3797 4.84677H61.0407ZM58.7387 1.4681H65.8673L74.5924 22H70.6197L69.2089 18.7698H55.2115L53.8007 22H49.7537L58.7387 1.4681ZM77.7985 1.4681H88.1573C91.1771 1.4681 93.776 2.42106 95.9542 4.32697C98.1324 6.20814 99.2215 8.67097 99.2215 11.7155C99.2215 14.76 98.12 17.2352 95.9171 19.1411C93.7389 21.047 91.1523 22 88.1573 22H77.7985V1.4681ZM81.5856 4.8839V18.5471H88.083C90.286 18.5471 92.0558 17.9159 93.3924 16.6535C94.7537 15.3912 95.4344 13.7452 95.4344 11.7155C95.4344 9.68581 94.7537 8.03979 93.3924 6.77744C92.0558 5.51508 90.286 4.8839 88.083 4.8839H81.5856ZM102.672 1.4681H121.05V4.8839H106.459V9.82195H119.602V13.2006H106.459V18.5471H121.607V22H102.672V1.4681ZM125.26 1.4681H130.755L138.775 17.6189H138.961L147.017 1.4681H152.364V22H148.614V6.14626H148.243L140.446 22H137.067L129.307 6.14626H128.899V22H125.26V1.4681ZM155.443 1.4681H159.75L166.953 13.1264H167.398L174.379 1.4681H178.685L168.921 16.8763V22H165.208V16.8763L155.443 1.4681Z" fill="white"/>
    </svg>

</svg>
