<?xml version="1.0" encoding="UTF-8"?><svg id="a" xmlns="http://www.w3.org/2000/svg" viewBox="0 0 333.37 100"><path d="M97.78,0H2.22C1.63,0,1.07,.23,.65,.65c-.42,.42-.65,.98-.65,1.57V97.78c0,.59,.23,1.15,.65,1.57,.42,.42,.98,.65,1.57,.65H97.78c.59,0,1.15-.23,1.57-.65s.65-.98,.65-1.57V2.22c0-.59-.23-1.15-.65-1.57-.42-.42-.98-.65-1.57-.65Zm-31.11,64.44c0,.59-.23,1.15-.65,1.57s-.98,.65-1.57,.65h-28.89c-.59,0-1.15-.23-1.57-.65s-.65-.98-.65-1.57v-28.89c0-.59,.23-1.15,.65-1.57s.98-.65,1.57-.65h28.89c.59,0,1.15,.23,1.57,.65,.42,.42,.65,.98,.65,1.57v28.89Z" style="fill:#eee;"/><path d="M297.83,33.34h-28.89c-1.23,0-2.22,.99-2.22,2.22v28.89c0,1.23,1,2.22,2.22,2.22h28.89c1.23,0,2.22-1,2.22-2.22v-28.89c0-1.23-1-2.22-2.22-2.22h0Z" style="fill:#eee;"/><path d="M264.48,0h-28.89c-1.23,0-2.22,.99-2.22,2.22V31.11c0,1.23,1,2.22,2.22,2.22h28.89c1.23,0,2.22-.99,2.22-2.22V2.22c0-1.23-.99-2.22-2.22-2.22Z" style="fill:#eee;"/><path d="M331.15,0h-28.89c-1.23,0-2.22,.99-2.22,2.22V31.11c0,1.23,1,2.22,2.22,2.22h28.89c1.23,0,2.22-.99,2.22-2.22V2.22c0-1.23-.99-2.22-2.22-2.22h0Z" style="fill:#eee;"/><path d="M264.48,66.67h-28.89c-1.23,0-2.22,.99-2.22,2.22v28.89c0,1.23,1,2.22,2.22,2.22h28.89c1.23,0,2.22-1,2.22-2.22v-28.89c0-1.23-.99-2.22-2.22-2.22Z" style="fill:#eee;"/><path d="M331.15,66.67h-28.89c-1.23,0-2.22,.99-2.22,2.22v28.89c0,1.23,1,2.22,2.22,2.22h28.89c1.23,0,2.22-1,2.22-2.22v-28.89c0-1.23-.99-2.22-2.22-2.22h0Z" style="fill:#eee;"/><path d="M214.44,0h-28.89c-1.23,0-2.22,.99-2.22,2.22V31.11c0,1.23,1,2.22,2.22,2.22h28.89c1.23,0,2.22-.99,2.22-2.22V2.22c0-1.23-1-2.22-2.22-2.22Z" style="fill:#eee;"/><path d="M214.44,66.67h-28.89c-1.23,0-2.22,.99-2.22,2.22v28.89c0,1.23,1,2.22,2.22,2.22h28.89c1.23,0,2.22-1,2.22-2.22v-28.89c0-1.23-1-2.22-2.22-2.22Z" style="fill:#eee;"/><path d="M183.33,35.53c0-.59-.23-1.15-.65-1.57s-.98-.65-1.57-.65h-31.11V2.22c0-.59-.23-1.15-.65-1.57-.42-.42-.98-.65-1.57-.65h-28.89c-.59,0-1.15,.23-1.57,.65-.42,.42-.65,.98-.65,1.57V97.73c0,.59,.23,1.15,.65,1.57s.98,.65,1.57,.65h28.89c.59,0,1.15-.23,1.57-.65,.42-.42,.65-.98,.65-1.57v-31.09h31.11c.59,0,1.15-.23,1.57-.65,.42-.42,.65-.98,.65-1.57v-28.89Z" style="fill:#eee;"/></svg>
