<svg width="16" height="16" viewBox="0 0 16 16" fill="none" xmlns="http://www.w3.org/2000/svg">
<path fill-rule="evenodd" clip-rule="evenodd" d="M0.532788 0.530854C0.668215 0.395446 0.852017 0.319568 1.04353 0.320009L4.57319 0.32816C4.97083 0.329081 5.29244 0.652179 5.29153 1.04982C5.29061 1.44746 4.96751 1.76907 4.56987 1.76816L2.78412 1.76403L5.39358 4.37348C5.67478 4.65466 5.67478 5.11054 5.39358 5.39172C5.1124 5.67287 4.65653 5.67287 4.37534 5.39172L1.76566 2.78203L1.76955 4.56857C1.77041 4.96621 1.44876 5.28927 1.05111 5.29013C0.65347 5.29099 0.33042 4.96935 0.329547 4.5717L0.321866 1.04157C0.321453 0.850063 0.397351 0.666271 0.532788 0.530854Z" fill="black" fill-opacity="0.85"/>
<path fill-rule="evenodd" clip-rule="evenodd" d="M5.39177 10.1272C5.67295 10.4085 5.67286 10.8643 5.39164 11.1454L2.78166 13.7547L4.56902 13.7509C4.96666 13.75 5.28972 14.0716 5.29059 14.4693C5.29145 14.867 4.9698 15.19 4.57215 15.1909L1.0425 15.1986C0.935316 15.1988 0.830541 15.1751 0.735329 15.1305C0.661294 15.0959 0.591924 15.048 0.53081 14.987C0.380484 14.8366 0.310557 14.6363 0.321012 14.4394L0.328615 10.9473C0.329479 10.5497 0.652538 10.2281 1.05018 10.2289C1.44782 10.2298 1.76948 10.5528 1.76861 10.9505L1.76473 12.7352L4.37354 10.1271C4.65475 9.8459 5.11062 9.84599 5.39177 10.1272Z" fill="black" fill-opacity="0.85"/>
<path fill-rule="evenodd" clip-rule="evenodd" d="M10.1271 10.1272C10.4083 9.84599 10.8641 9.8459 11.1453 10.1271L13.7551 12.7363L13.7514 10.9495C13.7505 10.5519 14.0722 10.2288 14.4698 10.228C14.8675 10.2271 15.1905 10.5488 15.1914 10.9464L15.1988 14.4764C15.1992 14.6679 15.1234 14.8516 14.9879 14.9871C14.8525 15.1224 14.6687 15.1983 14.4772 15.1979L10.9477 15.1899C10.55 15.1891 10.2284 14.8659 10.2293 14.4683C10.2303 14.0707 10.5533 13.7491 10.9509 13.7499L12.7363 13.754L10.1272 11.1454C9.84598 10.8643 9.84588 10.4085 10.1271 10.1272Z" fill="black" fill-opacity="0.85"/>
<path fill-rule="evenodd" clip-rule="evenodd" d="M13.7552 2.78391L13.7514 4.5681C13.7505 4.96575 14.0721 5.2888 14.4697 5.28966C14.8674 5.29052 15.1905 4.96888 15.1914 4.57123L15.1989 1.09182C15.2131 0.890873 15.1435 0.685078 14.9899 0.53142C14.889 0.430486 14.7656 0.365772 14.6358 0.337289C14.5843 0.325779 14.5312 0.319894 14.4774 0.320009L10.9478 0.327689C10.5501 0.328553 10.2284 0.651612 10.2293 1.04925C10.2302 1.4469 10.5533 1.76855 10.9509 1.76769L12.7388 1.7638L10.1291 4.37293C9.8479 4.65407 9.8478 5.10995 10.129 5.39116C10.4101 5.67239 10.866 5.67239 11.1472 5.3913L13.7552 2.78391Z" fill="black" fill-opacity="0.85"/>
</svg>
