<svg width="16" height="16" viewBox="0 0 16 16" fill="none" xmlns="http://www.w3.org/2000/svg">
<path fill-rule="evenodd" clip-rule="evenodd" d="M2.24001 12.48C2.24001 12.215 2.45491 12 2.72001 12H12.96C13.2251 12 13.44 12.215 13.44 12.48C13.44 12.7451 13.2251 12.96 12.96 12.96H2.72001C2.45491 12.96 2.24001 12.7451 2.24001 12.48Z" fill="#111"/>
<path fill-rule="evenodd" clip-rule="evenodd" d="M2.24001 3.52004C2.24001 3.25494 2.45491 3.04004 2.72001 3.04004H12.96C13.2251 3.04004 13.44 3.25494 13.44 3.52004C13.44 3.78513 13.2251 4.00004 12.96 4.00004H2.72001C2.45491 4.00004 2.24001 3.78513 2.24001 3.52004Z" fill="#111"/>
<path fill-rule="evenodd" clip-rule="evenodd" d="M2.24001 8.00004C2.24001 7.73495 2.45491 7.52004 2.72001 7.52004H12.96C13.2251 7.52004 13.44 7.73495 13.44 8.00004C13.44 8.26513 13.2251 8.48004 12.96 8.48004H2.72001C2.45491 8.48004 2.24001 8.26513 2.24001 8.00004Z" fill="#111"/>
</svg>
