<svg width="16" height="16" viewBox="0 0 16 16" fill="none" xmlns="http://www.w3.org/2000/svg">
<path fill-rule="evenodd" clip-rule="evenodd" d="M0.532788 0.530793C0.668215 0.395385 0.852017 0.319507 1.04353 0.319948L4.57319 0.328099C4.97083 0.32902 5.29244 0.652118 5.29153 1.04976C5.29061 1.4474 4.96751 1.76901 4.56987 1.7681L2.78412 1.76397L5.39358 4.37342C5.67478 4.6546 5.67478 5.11048 5.39358 5.39166C5.1124 5.67281 4.65653 5.67281 4.37534 5.39166L1.76566 2.78197L1.76955 4.5685C1.77041 4.96615 1.44876 5.28921 1.05111 5.29007C0.65347 5.29093 0.33042 4.96929 0.329547 4.57163L0.321866 1.04151C0.321453 0.850002 0.397351 0.66621 0.532788 0.530793Z" fill="#fff" fill-opacity="0.85"/>
<path fill-rule="evenodd" clip-rule="evenodd" d="M5.39177 10.1271C5.67295 10.4084 5.67286 10.8642 5.39164 11.1454L2.78166 13.7547L4.56902 13.7508C4.96666 13.75 5.28972 14.0716 5.29059 14.4692C5.29145 14.8669 4.9698 15.19 4.57215 15.1908L1.0425 15.1985C0.935316 15.1987 0.830541 15.1751 0.735329 15.1304C0.661294 15.0959 0.591924 15.048 0.53081 14.9869C0.380484 14.8365 0.310557 14.6362 0.321012 14.4393L0.328615 10.9472C0.329479 10.5496 0.652538 10.228 1.05018 10.2289C1.44782 10.2297 1.76948 10.5528 1.76861 10.9504L1.76473 12.7351L4.37354 10.127C4.65475 9.84584 5.11062 9.84593 5.39177 10.1271Z" fill="#fff" fill-opacity="0.85"/>
<path fill-rule="evenodd" clip-rule="evenodd" d="M10.1271 10.1271C10.4083 9.84593 10.8641 9.84584 11.1453 10.127L13.7551 12.7362L13.7514 10.9495C13.7505 10.5518 14.0722 10.2288 14.4698 10.2279C14.8675 10.2271 15.1905 10.5487 15.1914 10.9464L15.1988 14.4763C15.1992 14.6678 15.1234 14.8516 14.9879 14.987C14.8525 15.1224 14.6687 15.1982 14.4772 15.1978L10.9477 15.1899C10.55 15.189 10.2284 14.8659 10.2293 14.4682C10.2303 14.0706 10.5533 13.749 10.9509 13.7499L12.7363 13.7539L10.1272 11.1454C9.84598 10.8642 9.84588 10.4084 10.1271 10.1271Z" fill="#fff" fill-opacity="0.85"/>
<path fill-rule="evenodd" clip-rule="evenodd" d="M13.7552 2.78385L13.7514 4.56803C13.7505 4.96569 14.0721 5.28873 14.4697 5.2896C14.8674 5.29046 15.1905 4.96882 15.1914 4.57117L15.1989 1.09176C15.2131 0.890812 15.1435 0.685017 14.9899 0.531359C14.889 0.430425 14.7656 0.365711 14.6358 0.337228C14.5843 0.325718 14.5312 0.319833 14.4774 0.319948L10.9478 0.327628C10.5501 0.328492 10.2284 0.651551 10.2293 1.04919C10.2302 1.44683 10.5533 1.76849 10.9509 1.76763L12.7388 1.76374L10.1291 4.37287C9.8479 4.65401 9.8478 5.10989 10.129 5.3911C10.4101 5.67233 10.866 5.67233 11.1472 5.39123L13.7552 2.78385Z" fill="#fff" fill-opacity="0.85"/>
</svg>
