<svg width="24" height="17" viewBox="0 0 24 17" fill="none" xmlns="http://www.w3.org/2000/svg">
<path d="M22.7747 3.37625C22.5154 2.41234 21.7554 1.6525 20.7916 1.39294C19.0309 0.911194 11.988 0.911194 11.988 0.911194C11.988 0.911194 4.94536 0.911194 3.18466 1.37468C2.23943 1.63396 1.46091 2.41248 1.20163 3.37625C0.738281 5.13681 0.738281 8.78798 0.738281 8.78798C0.738281 8.78798 0.738281 12.4576 1.20163 14.1997C1.46118 15.1635 2.22089 15.9233 3.1848 16.1829C4.9639 16.6648 11.9883 16.6648 11.9883 16.6648C11.9883 16.6648 19.0309 16.6648 20.7916 16.2013C21.7555 15.9419 22.5154 15.182 22.7749 14.2182C23.2381 12.4576 23.2381 8.80652 23.2381 8.80652C23.2381 8.80652 23.2567 5.13681 22.7747 3.37625ZM9.7457 12.1611V5.4149L15.6022 8.78798L9.7457 12.1611Z" fill="#DBB566"/>
</svg>
