<svg width="16" height="16" viewBox="0 0 16 16" fill="none" xmlns="http://www.w3.org/2000/svg">
<path fill-rule="evenodd" clip-rule="evenodd" d="M1.6 4.48001C1.6 2.9778 2.81778 1.76001 4.32 1.76001C5.82221 1.76001 7.04 2.9778 7.04 4.48001C7.04 5.98222 5.82221 7.20001 4.32 7.20001C2.81778 7.20001 1.6 5.98222 1.6 4.48001ZM4.32 2.72001C3.34797 2.72001 2.56 3.50798 2.56 4.48001C2.56 5.45203 3.34797 6.24001 4.32 6.24001C5.29202 6.24001 6.08 5.45203 6.08 4.48001C6.08 3.50798 5.29202 2.72001 4.32 2.72001Z" fill="#fff"/>
<path fill-rule="evenodd" clip-rule="evenodd" d="M8.64 11.52C8.64 10.0178 9.85779 8.80005 11.36 8.80005C12.8622 8.80005 14.08 10.0178 14.08 11.52C14.08 13.0223 12.8622 14.24 11.36 14.24C9.85779 14.24 8.64 13.0223 8.64 11.52ZM11.36 9.76005C10.388 9.76005 9.6 10.548 9.6 11.52C9.6 12.4921 10.388 13.28 11.36 13.28C12.332 13.28 13.12 12.4921 13.12 11.52C13.12 10.548 12.332 9.76005 11.36 9.76005Z" fill="#fff"/>
<path fill-rule="evenodd" clip-rule="evenodd" d="M3.6224 11.1551C3.03565 11.1551 2.56 11.6307 2.56 12.2175C2.56 12.805 3.03579 13.2805 3.6224 13.2805C4.20901 13.2805 4.6848 12.805 4.6848 12.2175C4.6848 11.6307 4.20914 11.1551 3.6224 11.1551ZM1.6 12.2175C1.6 11.1005 2.50546 10.1951 3.6224 10.1951C4.73933 10.1951 5.6448 11.1005 5.6448 12.2175C5.6448 13.3349 4.73947 14.2405 3.6224 14.2405C2.50533 14.2405 1.6 13.3349 1.6 12.2175Z" fill="#fff"/>
<path fill-rule="evenodd" clip-rule="evenodd" d="M12.0574 2.72001C11.4708 2.72001 10.995 3.19554 10.995 3.78305C10.995 4.36979 11.4707 4.84545 12.0574 4.84545C12.6442 4.84545 13.1198 4.36979 13.1198 3.78305C13.1198 3.19554 12.644 2.72001 12.0574 2.72001ZM10.035 3.78305C10.035 2.6656 10.9404 1.76001 12.0574 1.76001C13.1745 1.76001 14.0798 2.6656 14.0798 3.78305C14.0798 4.89998 13.1743 5.80545 12.0574 5.80545C10.9405 5.80545 10.035 4.89998 10.035 3.78305Z" fill="#fff"/>
</svg>
