<svg width="48" height="48" viewBox="0 0 48 48" fill="none" xmlns="http://www.w3.org/2000/svg">
<path fill-rule="evenodd" clip-rule="evenodd" d="M24 44.352C35.2401 44.352 44.352 35.2401 44.352 24C44.352 12.7599 35.2401 3.648 24 3.648C12.7599 3.648 3.648 12.7599 3.648 24C3.648 35.2401 12.7599 44.352 24 44.352ZM24 48C37.2548 48 48 37.2548 48 24C48 10.7452 37.2548 0 24 0C10.7452 0 0 10.7452 0 24C0 37.2548 10.7452 48 24 48Z" fill="white"/>
<path d="M15.456 15.016C15.456 14.4637 15.9038 14.016 16.456 14.016H18.1918C18.7441 14.016 19.1918 14.4637 19.1918 15.016V20.7741C19.1918 21.3264 19.6395 21.7741 20.1918 21.7741H25.6053C25.9385 21.7741 26.2499 21.6081 26.4356 21.3315L31.0495 14.4586C31.2352 14.182 31.5466 14.016 31.8798 14.016H33.7986C34.5987 14.016 35.0748 14.909 34.6289 15.5733L29.9128 22.5994C29.6914 22.9293 29.6863 23.3589 29.8997 23.694L35.5969 32.6388C36.0209 33.3045 35.5428 34.176 34.7535 34.176H32.6778C32.3406 34.176 32.0262 34.0061 31.8414 33.7241L26.5455 25.6438C26.3607 25.3618 26.0463 25.1919 25.7092 25.1919H20.1918C19.6395 25.1919 19.1918 25.6396 19.1918 26.1919V32.12C19.1918 32.6723 18.7441 33.12 18.1918 33.12H16.456C15.9038 33.12 15.456 32.6723 15.456 32.12V26.1919C15.456 25.6396 15.0083 25.1919 14.456 25.1919H10.1362C9.33513 25.1919 8.85922 24.2972 9.30697 23.6329L10.2627 22.2151C10.4486 21.9394 10.7594 21.7741 11.0919 21.7741H14.456C15.0083 21.7741 15.456 21.3264 15.456 20.7741V15.016Z" fill="white"/>
</svg>
