<svg width="24" height="24" viewBox="0 0 24 24" fill="none" xmlns="http://www.w3.org/2000/svg">
<path d="M21.2932 2.91409C18.3403 4.13713 5.67837 9.38185 2.17989 10.8113C-0.166354 11.7269 1.20717 12.5854 1.20717 12.5854C1.20717 12.5854 3.20997 13.272 4.92693 13.7871C6.64365 14.3021 7.55925 13.7299 7.55925 13.7299L15.628 8.29345C18.4893 6.34777 17.8027 7.95001 17.1158 8.63689C15.628 10.1249 13.1673 12.4709 11.1072 14.3595C10.1916 15.1606 10.6492 15.8472 11.05 16.1907C12.5378 17.4497 16.601 20.0249 16.8297 20.1965C18.0386 21.0523 20.4165 22.2843 20.7782 19.6815L22.2088 10.6971C22.6668 7.66417 23.1244 4.86001 23.1816 4.05889C23.3534 2.11297 21.2932 2.91409 21.2932 2.91409Z" fill="#DBB566"/>
</svg>
