<svg width="20" height="16" viewBox="0 0 20 16" fill="none" xmlns="http://www.w3.org/2000/svg">
<path fill-rule="evenodd" clip-rule="evenodd" d="M0.719185 4.46573C1.04949 4.24433 1.49675 4.33262 1.71814 4.66292L3.12326 6.75928L5.20454 5.36415C5.53484 5.14274 5.98209 5.23101 6.20349 5.56132C6.4249 5.89163 6.33661 6.33889 6.00632 6.56027L3.32697 8.35624C3.16835 8.4626 2.97398 8.50158 2.78665 8.46452C2.59931 8.42756 2.43432 8.31774 2.328 8.15905L0.521991 5.46469C0.300596 5.13438 0.388877 4.68713 0.719185 4.46573Z" fill="#060604"/>
<path fill-rule="evenodd" clip-rule="evenodd" d="M16.7338 7.04987C16.9212 7.08683 17.0861 7.19675 17.1925 7.35534L18.9985 10.0498C19.2199 10.38 19.1316 10.8273 18.8013 11.0487C18.471 11.2701 18.0238 11.1818 17.8024 10.8515L16.3972 8.75521L14.316 10.1503C13.9856 10.3717 13.5384 10.2834 13.317 9.9531C13.0956 9.62276 13.1838 9.1756 13.5142 8.95412L16.1935 7.15816C16.3521 7.05188 16.5465 7.01291 16.7338 7.04987Z" fill="#060604"/>
<path fill-rule="evenodd" clip-rule="evenodd" d="M9.76095 1.66998C6.44295 1.66998 3.74421 4.32604 3.67547 7.6274C3.66719 8.02494 3.33819 8.34049 2.94063 8.33224C2.54307 8.32398 2.2275 7.99499 2.23578 7.59745C2.3208 3.51428 5.65769 0.22998 9.76095 0.22998C12.3315 0.22998 14.6014 1.51945 15.9578 3.48342C16.1837 3.81061 16.1018 4.25904 15.7745 4.48502C15.4473 4.71099 14.9989 4.62894 14.7729 4.30174C13.6739 2.71051 11.8387 1.66998 9.76095 1.66998Z" fill="#060604"/>
<path fill-rule="evenodd" clip-rule="evenodd" d="M16.5804 7.18638C16.9779 7.19464 17.2935 7.52363 17.2852 7.92126C17.2003 12.0043 13.8633 15.2887 9.76009 15.2887C7.18949 15.2887 4.91964 13.9992 3.56324 12.0352C3.33727 11.7081 3.41933 11.2596 3.74652 11.0336C4.07371 10.8077 4.52215 10.8897 4.74812 11.2169C5.84709 12.8081 7.68236 13.8487 9.76009 13.8487C13.078 13.8487 15.7768 11.1926 15.8455 7.89121C15.8539 7.49368 16.1829 7.17812 16.5804 7.18638Z" fill="#060604"/>
</svg>
