<svg width="12" height="10" viewBox="0 0 12 10" fill="none" xmlns="http://www.w3.org/2000/svg">
<path fill-rule="evenodd" clip-rule="evenodd" d="M0.240005 9.47998C0.240005 9.21489 0.454911 8.99998 0.720005 8.99998H10.96C11.2251 8.99998 11.44 9.21489 11.44 9.47998C11.44 9.74507 11.2251 9.95998 10.96 9.95998H0.720005C0.454911 9.95998 0.240005 9.74507 0.240005 9.47998Z" fill="#060604"/>
<path fill-rule="evenodd" clip-rule="evenodd" d="M0.240005 0.519978C0.240005 0.254884 0.454911 0.039978 0.720005 0.039978H10.96C11.2251 0.039978 11.44 0.254884 11.44 0.519978C11.44 0.785072 11.2251 0.999978 10.96 0.999978H0.720005C0.454911 0.999978 0.240005 0.785072 0.240005 0.519978Z" fill="#060604"/>
<path fill-rule="evenodd" clip-rule="evenodd" d="M0.240005 4.99998C0.240005 4.73489 0.454911 4.51998 0.720005 4.51998H10.96C11.2251 4.51998 11.44 4.73489 11.44 4.99998C11.44 5.26507 11.2251 5.47998 10.96 5.47998H0.720005C0.454911 5.47998 0.240005 5.26507 0.240005 4.99998Z" fill="#060604"/>
</svg>
